<?xml version="1.0" encoding="iso-8859-1"?>
<!-- Generator: Adobe Illustrator 16.0.0, SVG Export Plug-In . SVG Version: 6.00 Build 0)  -->
<!DOCTYPE svg PUBLIC "-//W3C//DTD SVG 1.1//EN" "http://www.w3.org/Graphics/SVG/1.1/DTD/svg11.dtd">
<svg version="1.1" id="Capa_1" xmlns="http://www.w3.org/2000/svg" xmlns:xlink="http://www.w3.org/1999/xlink" x="0px" y="0px"
	 width="55.133px" height="55.133px" viewBox="0 0 55.133 55.133" style="enable-background:new 0 0 55.133 55.133;"
	 xml:space="preserve">
<g>
	<g>
		<path d="M15.352,11.951c4.961-1.859,7.946,4.591,12.657,5.708c4.712,1.117,10.175-1.239,10.175-1.239s0.896,8.146,2.386,10.506
			V12.528c0-6.579-4.12-12.119-10.697-12.119H19.262c-6.579,0-10.723,5.539-10.723,12.119v14.397
			C8.539,26.926,10.39,13.813,15.352,11.951z"/>
		<path d="M20.333,38.917c2.234,0.591,6.109,0.571,8.659-0.039c2.547-0.61,5.809-2.07,7.279-3.266l2.665-2.164v-4.184
			c0-1.149-0.464-2.895-0.884-3.966c-1.075-2.745-2.161-6.824-2.161-6.824s-4.619,1.987-8.603,1.042
			c-3.983-0.943-6.507-6.394-10.703-4.82c-3.056,1.147-5.251,7.246-6.217,10.475c-0.329,1.103-0.55,2.941-0.55,4.092v4.184
			c0,0,1.45,0.983,3.235,2.203C14.839,36.872,18.101,38.326,20.333,38.917z"/>
		<path d="M22.817,54.724l-4.745-3.227l2.491-5.925l-3.415-2.145l5.028-1.871c-0.821-0.075-1.682-0.202-2.481-0.412
			c-2.508-0.66-6.05-2.248-8.057-3.62L7.3,34.573v-5.582H5.037C2.254,28.991,0,31.242,0,34.027v15.662
			c0,2.784,2.254,5.035,5.037,5.035H22.817z"/>
		<polygon points="51.28,53.25 51.28,44.297 55.133,44.297 48.639,33.052 42.148,44.297 46.071,44.297 46.071,53.25 		"/>
		<path d="M44.436,54.689v-8.917h-5.068l8.604-14.9c-0.924-1.14-2.317-1.882-3.9-1.882h-2.616v5.45l-3.595,2.92
			c-1.776,1.437-5.336,3.057-8.282,3.759c-0.839,0.199-1.809,0.34-2.835,0.429l4.866,1.67l-2.979,2.374l2.053,6.159l-4.646,2.974
			h18.035C44.198,54.724,44.313,54.698,44.436,54.689z"/>
	</g>
</g>
<g>
</g>
<g>
</g>
<g>
</g>
<g>
</g>
<g>
</g>
<g>
</g>
<g>
</g>
<g>
</g>
<g>
</g>
<g>
</g>
<g>
</g>
<g>
</g>
<g>
</g>
<g>
</g>
<g>
</g>
</svg>
