<svg width="114" height="100" viewBox="0 0 114 100" fill="none" xmlns="http://www.w3.org/2000/svg">
<path fill-rule="evenodd" clip-rule="evenodd" d="M80 7.29911C80 -6.10089 102.4 10.5 103.4 10.2C104 9.9 14.8 0.0999995 29.8 0.0999995L57 0V2.4C57 3.7 57.7 5.3 58.5 6C59.4 6.7 54.4 9.04725 54.2 9.24725C54 9.44725 55.6 7.3 50.9 6.5C39.8 4.5 40 17.7 34.6 20.2C27.1 23.6 16 19.3 16 24.8C16 27.3 12.5 30.4 10.5 29.7C8.4 28.8 6 29.9 6 31.7C6 33.1 2.3 36.9 0.8 37C0.3 37 80 17.0991 80 7.29911ZM61.1 5.6C59.9 4.5 59 2.9 59 2C58.5 13.8064 63.1 9.24725 69.5 9.24725C73.6 9.24725 74 0.500004 74 0.700004C74 1.1 67.8 3.9 66.3 4.2C65.8 4.2 65 5 64.3 5.9C63.3 7.3 63 7.3 61.1 5.6ZM63.6 4C63.8 4 64 3.5 64 3C64 2.4 63.5 2 62.9 2C62.4 2 62.2 2.4 62.5 3C62.8 3.5 63.3 4 63.6 4ZM75.5 1.7C74.2954 2.3776 72.4672 3.33862 70.9118 4.15629C70.4012 4.42467 69.9201 4.6776 69.5 4.9C67.9 5.8 65.8 7 65 7.5C64 8.1 67 8.9 74.8 10.2C87 12.1 91.9 14.1 96.4 18.9C99.9 22.5 100.9 22.7 105.2 20C107 18.9 109.5 18 110.8 18C112.9 18 105.2 28.7 105.2 20L34.6 20.2L89.3 13.8064C75.1 13.8064 70.3 9.40368 75.5 1.7ZM105.5 22.4C105.2 21.8 106 20.8 107.2 20.2C108.984 19.3942 109.742 19.0522 109.93 19.2503C110.068 19.3963 109.897 19.8361 109.6 20.6C109.1 22 109.2 22.1 110.5 21C111.4 20.3 112.4 20 112.8 20.4C113.2 20.8 112.6 21.8 111.6 22.6C110.5 23.4 110 24 110.4 24C110.9 24 110.7 24.7 110 25.5C108.4 27.5 107.4 27.4 106.6 25.2C106.3 24.3 105.8 23 105.5 22.4ZM101 24C99.7 24.8 99.8 25.2 101.5 26.5C102.6 27.4 102.9 27.9 102.3 27.5C101.4 27.1 101.2 27.4 101.6 28.5C102.4 30.6 104.4 29.9 104.8 27.3C105.2 24.8 102.9 22.8 101 24ZM109.8 27.6C111 27.2 112.1 26.1 112.2 25.2C112.4 24.3 112.6 32 112.7 42.5C112.9 52.9 112.8 62 112.6 62.6C112.4 63.2 111.1 63.6 109.8 63.3C108.4 63 106.7 63.6 105.5 64.8C104.4 65.8 102.5 66.9 101.2 67.2C100.482 67.4127 99.9554 67.5688 99.6155 67.3829C98.6767 66.8695 99.1645 63.7471 101 52.0004C102.1 45.1004 103 37.7 103 35.5C103.1 31.3 105 29.1 109.8 27.6ZM71.8 28.5C69.8 29.1 65.7 31.1 62.6 32.8C59.5 34.6 56.5 36 56 36C55.4 36 51.9 34.2 48.3 32C43.6 29.2 40.5 28 37.8 28C30.7 28 30.6 34 37.6 45.5L41.2 51.5L38 57.3C33.6 65.3 35 66.3 40 58.8C41.4 56.7 43 55 43.5 55C44.1 55 46.7 57.2 49.4 59.9L54.2 64.7L51.2 66.9C46.4 70.2 39.8 73 36.3 73C32.4 73 31.9 74.7 35.4 75.6C38.6 76.4 43.3 74.8 50.5 70.5C53.7 68.6 56.4 67 56.7 67C56.9 67 59 68.3 61.3 69.9C67.4 74 75.6 76.8 77.8 75.4C81 73.3 80 66.2 75.3 58.4C72 52.9 71.4 51.2 72.3 50.1C74.7 47.2 67.4 52.4 62.4 57.3C56.2 63.2 55 63 49.2 56.1L45.1 51.3L50.5 46L55.8 40.7L58.5 42.9C62 45.6 63.8 44.5 60.9 41.4C59.6943 40.0847 59.1493 39.4902 59.2159 38.9746C59.2707 38.5494 59.7413 38.1779 60.6 37.5C63.6 35.1 71.3 31.2 73.5 31C77.5 30.5 78.2 30.9 77.8 33.4C77.4 35.1 77.7 35.7 78.7 35.3C79.4 35 80 33.8 80 32.6C80 28.1 77.1 26.7 71.8 28.5ZM46.3 33.8C53.8 37.8 53.9 38.3 48.9 43.9C46.5 46.6 44.2 48.8 43.8 48.9C42.5 49.1 37 40.8 35.9 36.9C33.6 29.4 36.5 28.6 46.3 33.8ZM71.3 56.8C73.4 59.1 78 69 78 71.2C78 74.8 69.9 72.5 61.7 66.7L58.8 64.7L63.6 59.9C66.3 57.2 68.7 55 69.1 55C69.4 55 70.4 55.8 71.3 56.8ZM12.5 34.2C12.1 33.5 12.4 32.2 13.2 31.3C14.4 29.8 14.5 29.9 14.8 31.7C15.2 34.5 13.2 39.2 11.8 38.8C11.1 38.5 9.8 39.3 8.9 40.4C7.5 42.1 7 42.2 5.6 41.1C4.2 39.9 11.5 38.6 12.1 40C12.4 41 69.1352 5.24286 67.8352 5.84286C64.9352 7.44286 0 45.3 0 41.4C0 38.3 0.3 37.9 2 38.5C3.4 39 4 38.7 4 37.5C4 35.3 6.7 34.5 8.7 36.1C10.4 37.4 10.4 37.3 8.7 34.8C6.6 31.5 6.6 31 8.4 31C9.1 31 10.5 32 11.4 33.2C12.3 34.5 12.8 34.9 12.5 34.2ZM75 40.5C74 42.4 73.9 43.3 74.8 44.2C75.6 45 76.2 44.6 77 42.6C78.9 37.5 77.4 36 75 40.5ZM7.9 43C8.4 43 9.3 42.3 10 41.5C10.7 40.7 11.6 40 12.1 40C13.4 40 13.2 43.2 11.4 54C10.5 59.2 9.8 65.8 9.8 68.7C9.8 73 9.5 74 7.9 74.5C6.9 74.9 6 75.8 6 76.7C6 78.1 2.3 81.9 0.8 82C0.3 82 33.5 95.9 33.5 86.4L0.1 47.5L3.6 45.2C5.6 44 7.5 43 7.9 43ZM63 45.7C63 46.2 63.9 47.5 64.8 48.8L66.6 51.2L70.3 49C72.3 47.8 73.7 46.4 73.4 45.8C73.1 45.3 71.9 45.8 70.8 47L68.8 49.1L66.6 47.1C64.3 44.9 63 44.4 63 45.7ZM106.3 67.7C104.1 68.6 104.9 66.4 107.3 65.2C109.016 64.3994 109.75 64.0566 109.934 64.2465C110.071 64.3886 109.9 64.8293 109.6 65.6C109.1 67 109.2 67.1 110.5 66C111.4 65.3 112.3 65 112.7 65.4C113.1 65.7 112.5 66.7 111.4 67.5C110.4 68.3 109.9 69 110.4 69C111.6 69 109 72 107.8 72C107.2 72 107 70.9 107.2 69.6C107.6 67.9 107.3 67.3 106.3 67.7ZM33.3 66.2C33.3 66.9 33 68.5 32.6 69.7C32 71.6 32.2 71.9 33.5 71.4C34.4 71 34.9 70.1 34.6 69.4C34.3 68.7 34.5 67.8 35.1 67.5C35.6 67.1 35.8 66.4 35.5 65.9C34.6 64.6 33.3 64.8 33.3 66.2ZM97.3 76.7C97.3 73.6 97.9 71.9 99.7 70.3C101 69.1 102.7 68.3 103.4 68.6C105.7 69.5 106.2 72.2 104.5 73.9C103.3 75.2 102.6 75.2 101 74.2C99.2 73.1 99.1 73.2 100.2 75.5C101 77.4 101 78.3 100 79.5C98 81.9 97.3 81.3 97.3 76.7ZM112 70.9C112 71.4 110.8 72.3 109.3 72.9C105.4 74.3 103.4 76.1 102.6 78.8C102.1 80.3 100.8 81.3 98.9 81.7C97.1 82 95.4 83.3 94.5 84.9C92.3 89.1 117.27 45 112.77 47C107.87 49.2 61.3 99.5 59.2 97.8C58.5 97.2 52.2 95.9 45.2 94.9C28.5 92.5 24.6 91.3 19.4 87.3C14.7 83.8 13.9 83.8 7.5 88C5.9 89.1 3.5 90.5 2.3 91.1C0.3 92.2 54.2 80.3 54.2 86.4L109.3 72.9L101 24L103 35.5L112.801 56.1C112.801 46.2 51.5 99.2 51.2 99.2C50.9 99.2 112 70.4 112 70.9ZM8.1 78.7C7.5 77.9 7.3 77 7.7 76.7C8.8 75.5 9.4 75.9 11.7 79.5C13.8 82.6 13.4 85 11.1 83.6C10.6 83.3 9.9 83.7 9.6 84.6C9.2 85.7 8.2 86.1 6.5 85.8C5.2 85.5 4.3 85.7 4.6 86.2C5.4 87.4 3.1 90 1.4 90C0.5 90 0 88.8 0 86.4C0 83.3 0.3 82.8 1.9 83.3C3.2 83.6 4 83.2 4.3 81.9C4.6 80.8 5.7 80 7 80C8.8 80 9 79.7 8.1 78.7Z" fill="black"/>
</svg>
