<?xml version="1.0" standalone="no"?>
<!DOCTYPE svg PUBLIC "-//W3C//DTD SVG 20010904//EN"
 "http://www.w3.org/TR/2001/REC-SVG-20010904/DTD/svg10.dtd">
<svg version="1.0" xmlns="http://www.w3.org/2000/svg"
 width="214.000000pt" height="99.000000pt" viewBox="0 0 214.000000 99.000000"
 preserveAspectRatio="xMidYMid meet">
<metadata>
Created by potrace 1.16, written by Peter Selinger 2001-2019
</metadata>
<g transform="translate(0.000000,99.000000) scale(0.100000,-0.100000)"
fill="#000000" stroke="none">
<path d="M0 875 c0 -95 3 -117 15 -122 20 -7 55 24 55 49 0 49 70 137 135 171
29 16 26 16 -87 17 l-118 0 0 -115z"/>
<path d="M562 978 c-10 -10 11 -16 98 -30 120 -19 169 -39 214 -87 35 -36 45
-38 88 -11 61 37 124 16 84 -29 -9 -10 -16 -23 -16 -29 0 -6 -10 -14 -22 -18
-48 -15 -67 -37 -68 -79 0 -22 -9 -96 -20 -165 -25 -160 -25 -160 2 -152 13 3
32 14 43 24 14 13 30 17 57 15 l38 -4 0 163 0 164 110 0 c118 0 155 -10 183
-51 9 -13 17 -16 22 -10 3 6 15 11 26 11 13 0 19 7 19 24 0 24 8 27 100 39 14
2 37 10 52 18 14 8 48 25 75 39 26 13 59 32 72 42 31 23 87 24 95 1 4 -10 1
-22 -6 -28 -7 -6 -18 -19 -24 -30 -6 -11 -20 -21 -32 -23 -31 -5 -37 -32 -7
-32 l25 0 0 -165 c0 -133 3 -163 13 -159 22 8 41 -21 25 -37 -7 -8 -19 -26
-27 -41 -8 -16 -21 -28 -28 -28 -21 0 -63 -31 -63 -46 0 -17 -32 -34 -62 -32
-22 1 -65 -19 -133 -63 -16 -10 -41 -24 -55 -31 -14 -7 -27 -15 -30 -18 -12
-14 -104 -60 -120 -60 -20 0 -60 40 -60 61 0 21 20 39 44 39 20 1 111 50 92
50 -5 0 -3 7 5 16 8 10 22 14 40 10 19 -4 32 1 48 18 11 12 21 27 21 33 0 6 6
14 13 16 6 3 -7 6 -30 6 l-43 1 0 135 0 135 -25 -16 c-14 -9 -32 -32 -40 -50
-17 -42 -59 -63 -140 -71 l-65 -6 0 -63 0 -64 -45 0 c-43 0 -45 1 -45 30 0 34
-15 40 -25 11 -3 -11 -18 -24 -33 -30 -38 -14 -58 -32 -66 -59 -5 -15 -18 -25
-37 -29 -18 -3 -35 -16 -44 -32 -22 -42 -77 -93 -122 -113 -49 -22 -210 -33
-231 -16 -7 6 -70 19 -140 29 -167 24 -206 36 -259 76 -40 31 -46 33 -71 21
-26 -13 -27 -16 -30 -106 l-3 -92 1071 0 1070 0 0 55 c0 30 -2 55 -4 55 -2 0
-24 -11 -47 -25 -54 -31 -80 -31 -107 -2 -27 29 -27 28 -13 54 7 15 20 22 34
21 29 -3 97 39 97 59 0 8 9 17 20 20 19 5 20 14 20 164 0 88 -4 159 -8 159 -4
0 -29 -14 -55 -30 -26 -17 -52 -30 -56 -30 -10 0 -61 58 -61 68 1 17 20 35 41
37 34 4 99 44 99 62 0 8 9 17 20 20 19 5 20 14 20 154 l0 149 -39 0 c-22 0
-43 -4 -46 -10 -3 -5 -17 -10 -30 -10 -13 0 -27 5 -30 10 -4 6 -126 10 -333
10 -271 0 -331 -3 -348 -15 -19 -12 -24 -12 -40 0 -26 20 -693 22 -712 3z"/>
<path d="M628 765 c-20 -6 -61 -26 -92 -43 -31 -18 -61 -32 -66 -32 -6 0 -41
18 -77 40 -47 28 -78 40 -105 40 -71 0 -72 -60 -2 -175 l36 -60 -32 -58 c-44
-80 -30 -90 20 -15 14 21 30 38 35 38 6 0 32 -22 59 -49 l48 -48 -30 -22 c-48
-33 -114 -61 -149 -61 -39 0 -44 -17 -9 -26 32 -8 79 8 151 51 32 19 59 35 62
35 2 0 23 -12 46 -28 57 -37 113 -62 141 -62 60 0 59 75 -2 178 -32 53 -38 70
-29 81 24 30 -49 -24 -100 -73 -49 -46 -54 -49 -76 -37 -14 7 -40 32 -60 56
l-36 42 54 53 53 53 27 -22 c35 -27 53 -16 24 15 -22 24 -22 24 -3 39 30 24
107 63 129 65 40 5 47 1 43 -24 -4 -17 -1 -23 9 -19 7 3 13 15 13 27 0 45 -29
59 -82 41z m-255 -53 c75 -40 76 -45 26 -101 -24 -27 -47 -49 -51 -50 -13 -2
-68 81 -79 120 -23 75 6 83 104 31z m250 -230 c21 -23 67 -122 67 -144 0 -36
-81 -13 -163 45 l-29 20 48 48 c27 27 51 49 55 49 3 0 13 -8 22 -18z"/>
<path d="M1520 395 c0 -107 4 -111 64 -70 20 14 40 25 45 25 22 0 41 40 41 88
l0 52 -75 0 -75 0 0 -95z"/>
<path d="M1632 338 c-23 -14 -32 -26 -29 -39 4 -15 2 -16 -13 -7 -25 16 -53
-7 -45 -36 4 -15 1 -13 -10 7 -9 15 -19 27 -24 27 -16 0 -21 -13 -10 -27 9
-10 7 -13 -9 -13 -20 0 -46 -23 -37 -32 3 -2 -5 -4 -18 -4 -12 1 -25 5 -28 10
-10 13 -29 -3 -23 -18 3 -9 -3 -17 -16 -21 -14 -4 -19 -12 -15 -22 4 -12 3
-13 -8 -5 -19 16 -28 4 -16 -22 9 -20 9 -20 -5 -3 -11 14 -19 16 -33 9 -10 -5
-24 -7 -30 -5 -20 7 -15 -32 6 -51 17 -16 21 -15 60 6 28 15 40 27 36 36 -4
12 -3 12 9 3 17 -14 29 0 20 23 -3 9 -1 16 5 16 6 0 11 -4 11 -10 0 -18 39
-11 49 9 6 10 8 21 5 23 -2 3 7 3 21 1 17 -4 27 0 31 11 3 9 10 14 14 11 5 -3
14 0 22 7 7 7 20 14 28 16 8 2 20 10 26 18 15 19 35 18 28 -1 -8 -20 10 -19
30 1 18 17 20 30 8 38 -5 3 -7 19 -4 36 2 16 3 30 1 29 -2 0 -19 -10 -37 -21z"/>
</g>
</svg>
